<?xml version="1.0" encoding="utf-8"?>
<!-- Generator: Adobe Illustrator 16.0.0, SVG Export Plug-In . SVG Version: 6.00 Build 0)  -->
<!DOCTYPE svg PUBLIC "-//W3C//DTD SVG 1.1//EN" "http://www.w3.org/Graphics/SVG/1.1/DTD/svg11.dtd">
<svg version="1.1" id="Capa_1" xmlns="http://www.w3.org/2000/svg" xmlns:xlink="http://www.w3.org/1999/xlink" x="0px" y="0px"
	 width="198.966px" height="222px" viewBox="0 0 198.966 222" enable-background="new 0 0 198.966 222" xml:space="preserve">
<path fill-rule="evenodd" clip-rule="evenodd" d="M167.011,109.667c0.805,3.85,0.854,11.896,0,15.734
	c-0.977,4.395-6.903,14.758-7.646,16.303c-0.6,1.233-4.522,10.378-3.373,13.717c0.403,1.17,3.823,3.148,3.823,3.148l-8.77,20.687
	l-4.859,15.013l-0.358,0.21l-0.472,0.161l3.216-16.508c0,0,2.533-13.184,1.574-15.291c-1.021-2.242-6.041-4.306-7.758-6.071
	c-2.039-2.096-5.246-7.099-6.408-9.781c-1.626-3.753-3.854-15.899-3.854-15.899s-14.563,3.703-19.644,4.544
	c-4.806,0.796-19.675,2.08-19.675,2.08s-3.136,5.407-3.823,7.364c-1.195,3.41-2.692,10.565-2.807,14.176
	c-0.083,2.634,0.781,5.604,0.545,7.459c-0.145,1.138-1.299,3.228-1.39,4.371c-0.067,0.84,0.5,3.333,0.5,3.333l0.25,18.377
	l-0.792,0.707l-1.254-11.32l-1.824-8.307c0,0-1.092-1.402-1.297-1.956c-0.219-0.589-0.845-3.282-0.845-3.282l-11.774-19.283
	c0,0-5.198-5.843-6.753-7.932c-1.204-1.616-3.296-5.086-4.152-6.911c-0.728-1.55-1.815-4.995-2.101-6.684
	c-0.308-1.823-0.401-7.174-0.401-7.174l0.222-3.588l0.68-6.719L56,107.573v-1.08l-0.822-24.035c0,0-0.924-9.348-1.862-12.318
	c-0.296-0.936-1.442-2.898-2.126-3.3c-0.718-0.422-2.449-0.576-3.282-0.576c-1.388,0-5.543,0.328-5.543,0.328l-6.513,0.5
	l-6.344-0.095l-3.945-0.325c0,0-2.352-0.282-3.926-1.051c-0.855-0.417-2.399-2.955-2.399-2.955s-1.285-2.956-0.518-3.46
	c3.975-2.611,11.971-4.802,11.971-4.802s3.355-1.005,4.329-1.629c0.541-0.346,1.826-1.806,1.826-1.806l2.179-2.59
	c0,0,1.452-2.144,2.01-2.8c0.665-0.781,2.909-2.896,2.909-2.896l2.923-1.869l4.708-1.925c0,0,1.454-0.536,2.783-1.265
	c0.601-0.331,1.99-2.384,2.192-2.951c0.344-0.958,1.295-2.154,2.023-3.289c1.07-1.666,1.968-4.638,1.968-4.638
	s1.578,3.884,1.704,5.26c0.208,2.272-1.057,5.027-1.057,5.027s2.73,1.344,3.401,2.082c1.125,1.236,1.338,2.824,1.519,3.841
	c0.297,1.673,1.021,4.995,1.31,6.67c0.289,1.677,0.72,5.054,1,6.732c0.376,2.253,1.733,8.974,1.733,8.974l1.507,6.118
	c0,0,1.574,5.751,2.103,7.589c0.783,2.722,2.735,6.639,4.713,7.744C82.103,88.81,95,88.638,95,88.638s39.836-3.208,52.955-0.199
	c4.628,1.062,15.795-0.813,15.795-0.813s-0.089,0.782-1.45,3.265c-1.006,1.836-2.953,1.929-2.487,2.422
	C162.59,96.251,166.184,105.709,167.011,109.667z"/>
</svg>
